<svg width="23" height="20" viewBox="0 0 23 20" fill="none" xmlns="http://www.w3.org/2000/svg">
<path d="M21.8231 -0.00585938H1.44143C0.884103 -0.00585938 0.43042 0.38874 0.43042 0.874966V18.6601C0.43042 19.1451 0.884103 19.5409 1.44143 19.5409H21.823C22.3818 19.5409 22.8355 19.1451 22.8355 18.6601V0.874966C22.8355 0.38874 22.3818 -0.00585937 21.8231 -0.00585937V-0.00585938ZM11.633 6.35659C13.7923 6.35659 15.5426 7.88367 15.5426 9.76749C15.5426 11.6513 13.7923 13.1784 11.633 13.1784C9.47368 13.1784 7.7233 11.6513 7.7233 9.76749C7.7233 7.88367 9.47368 6.35659 11.633 6.35659ZM20.0349 17.0976H3.23106V8.54584H5.07527C4.97863 8.94044 4.92262 9.34846 4.92262 9.76749C4.92262 12.9964 7.93331 15.6217 11.6329 15.6217C15.334 15.6217 18.3432 12.9964 18.3432 9.76749C18.3432 9.34846 18.2872 8.94044 18.192 8.54584H20.0348V17.0976H20.0349ZM20.0349 6.10249H15.834V2.43749H20.0349V6.10249Z" fill="#5B5A7E"/>
</svg>
